<svg xmlns="http://www.w3.org/2000/svg" xmlns:xlink="http://www.w3.org/1999/xlink" width="500" zoomAndPan="magnify" viewBox="0 0 375 374.999991" height="500" preserveAspectRatio="xMidYMid meet" version="1.0"><defs><clipPath id="ef86673e55"><path d="M 115.085938 35.480469 L 258 35.480469 L 258 174.230469 L 115.085938 174.230469 Z M 115.085938 35.480469 " clip-rule="nonzero"/></clipPath><clipPath id="42bba17545"><path d="M 222 95 L 258.335938 95 L 258.335938 138 L 222 138 Z M 222 95 " clip-rule="nonzero"/></clipPath><clipPath id="c94b753e47"><path d="M 109.136719 135.019531 L 265.886719 135.019531 L 265.886719 317 L 109.136719 317 Z M 109.136719 135.019531 " clip-rule="nonzero"/></clipPath></defs><g clip-path="url(#ef86673e55)"><path fill="#a6ca2f" d="M 234.679688 159.585938 C 231.601562 150.394531 228.15625 141.335938 225.113281 132.144531 C 229.167969 137.246094 232.953125 142.585938 236.910156 147.757812 C 233.96875 140.320312 231.128906 132.820312 228.054688 125.417969 C 225.855469 125.316406 223.660156 125.078125 221.464844 125.078125 C 217.476562 131.332031 213.25 137.449219 209.230469 143.667969 C 209.128906 133.359375 208.585938 123.050781 208.453125 112.742188 C 205.542969 115.414062 202.839844 118.253906 200 120.988281 C 195.710938 125.28125 191.316406 129.507812 187.191406 133.96875 C 190.910156 124.539062 194.59375 115.074219 198.445312 105.679688 C 189.996094 109.703125 181.480469 113.589844 173.097656 117.710938 C 176.882812 113.824219 180.433594 109.703125 184.152344 105.78125 C 188.984375 100.375 194.085938 95.167969 198.886719 89.691406 C 194.460938 91.925781 189.796875 93.679688 185.265625 95.742188 C 179.386719 98.210938 173.574219 100.746094 167.65625 103.179688 C 179.554688 95.710938 191.550781 88.375 203.28125 80.636719 C 203.617188 80.398438 203.988281 80.164062 204.464844 80.296875 C 209.429688 81.242188 214.398438 82.324219 219.367188 83.304688 C 223.355469 88.613281 227.410156 93.953125 231.128906 99.425781 C 228.121094 99.191406 225.113281 99.359375 222.105469 99.324219 C 218.285156 99.359375 214.433594 99.292969 210.613281 99.359375 C 211.121094 99.628906 211.628906 99.832031 212.167969 100 C 215.851562 101.183594 219.503906 102.503906 223.152344 103.753906 C 232.988281 100.507812 242.855469 97.265625 252.726562 93.984375 C 254.28125 90.84375 255.765625 87.664062 257.355469 84.523438 C 248.601562 76.882812 239.714844 69.347656 230.386719 62.417969 C 217.644531 53.160156 204.765625 44.03125 191.550781 35.480469 C 204.394531 47.617188 217.644531 59.34375 230.554688 71.375 C 229.472656 70.902344 228.425781 70.328125 227.410156 69.785156 C 215.246094 63.195312 202.941406 56.773438 190.574219 50.523438 L 191.113281 50.183594 C 190.910156 50.21875 190.707031 50.285156 190.503906 50.351562 C 190.300781 50.285156 189.863281 50.148438 189.660156 50.082031 C 197.90625 56.4375 206.523438 62.351562 214.839844 68.636719 C 209.429688 67.183594 203.886719 66.238281 198.414062 64.988281 C 192.09375 63.636719 185.773438 62.148438 179.488281 60.59375 C 180.769531 61.742188 182.394531 62.417969 183.847656 63.296875 C 187.394531 65.257812 190.976562 67.183594 194.460938 69.28125 C 190.234375 69.617188 186.109375 70.5625 181.953125 71.105469 C 174.753906 72.289062 167.523438 73.335938 160.324219 74.621094 C 166.203125 75.398438 172.117188 75.902344 178 76.648438 C 175.328125 78.507812 172.492188 80.09375 169.753906 81.851562 C 162.992188 86.042969 156.234375 90.167969 149.476562 94.324219 C 146.265625 96.386719 142.851562 98.144531 139.742188 100.375 C 147.3125 99.460938 154.882812 98.515625 162.488281 97.703125 C 160.933594 99.15625 159.105469 100.304688 157.449219 101.625 C 151.265625 106.457031 145.011719 111.257812 138.796875 116.054688 C 134.535156 119.503906 130.007812 122.644531 125.816406 126.125 C 133.050781 125.316406 140.316406 124.84375 147.582031 124.402344 C 137.613281 134.171875 127.675781 143.835938 117.773438 153.570312 C 124.632812 152.117188 131.597656 151.101562 138.492188 149.71875 C 130.546875 159.449219 122.945312 169.421875 115.101562 179.222656 C 118.652344 177.871094 122.300781 176.855469 125.851562 175.574219 C 131.15625 173.847656 136.363281 171.886719 141.703125 170.265625 C 139.402344 173.578125 137.242188 176.992188 135.042969 180.335938 C 134.707031 180.742188 135.347656 181.046875 135.550781 181.351562 C 144.609375 189.96875 153.632812 198.621094 162.621094 207.308594 C 172.085938 216.398438 181.617188 225.457031 191.078125 234.546875 C 195.269531 230.289062 199.5625 226.167969 203.820312 222.011719 C 213.285156 212.648438 222.847656 203.421875 232.246094 193.992188 C 232.617188 193.484375 233.5625 193.113281 233.324219 192.371094 C 230.046875 177.296875 226.804688 162.1875 223.390625 147.148438 C 227.851562 153.46875 232.515625 159.652344 236.976562 165.941406 C 236.335938 163.777344 235.386719 161.714844 234.679688 159.585938 Z M 234.679688 159.585938 " fill-opacity="1" fill-rule="nonzero"/></g><path fill="#a6ca2f" d="M 216.496094 89.625 C 216.226562 86.957031 213.316406 85.027344 210.75 85.738281 C 209.027344 86.109375 207.605469 87.53125 207.269531 89.253906 C 206.695312 91.621094 208.214844 94.222656 210.582031 94.796875 C 213.691406 95.84375 217.136719 92.871094 216.496094 89.625 Z M 216.496094 89.625 " fill-opacity="1" fill-rule="nonzero"/><g clip-path="url(#42bba17545)"><path fill="#a6ca2f" d="M 258.675781 111.222656 C 257.726562 105.78125 255.292969 100.746094 252.421875 96.082031 C 252.152344 95.609375 251.578125 96.082031 251.203125 96.113281 C 241.976562 99.121094 232.785156 102.128906 223.59375 105.238281 C 223.320312 111.425781 222.78125 117.574219 222.476562 123.761719 C 226.296875 124.234375 230.117188 125.046875 233.96875 124.808594 C 239.273438 124.570312 244.378906 122.375 248.367188 118.929688 C 250.328125 121.800781 251.679688 125.113281 252.285156 128.558594 C 252.859375 131.636719 253.0625 134.847656 252.421875 137.957031 C 252.757812 137.449219 253.097656 136.941406 253.707031 136.808594 C 253.773438 136.535156 253.636719 136.230469 253.605469 135.960938 C 254.921875 134.710938 255.566406 132.921875 256.410156 131.332031 C 259.25 125.046875 259.890625 117.949219 258.675781 111.222656 Z M 258.675781 111.222656 " fill-opacity="1" fill-rule="nonzero"/></g><g clip-path="url(#c94b753e47)"><path fill="#64690c" d="M 179.523438 316.988281 L 112.234375 276.417969 L 133.125 265.972656 Z M 109.152344 270.480469 L 109.152344 192.195312 L 129.824219 260.144531 Z M 109.152344 186.695312 L 109.152344 182.1875 C 109.152344 181.089844 109.59375 180.210938 110.253906 179.550781 L 184.140625 161.40625 L 184.140625 135.019531 L 111.792969 178.558594 L 134.664062 253.546875 L 180.953125 168.996094 Z M 190.847656 135.019531 L 263.304688 178.671875 L 240.105469 253.65625 L 193.925781 168.773438 L 265.835938 186.257812 L 265.835938 182.1875 C 265.835938 180.867188 265.175781 179.878906 264.296875 179.21875 L 263.964844 179.109375 L 190.847656 161.296875 Z M 265.835938 192.964844 L 265.835938 270.257812 L 244.945312 260.144531 Z M 262.753906 276.304688 L 195.574219 316.769531 L 241.753906 265.972656 Z M 233.179688 265.203125 L 141.589844 265.203125 L 187.4375 315.886719 Z M 187.550781 170.753906 L 139.5 258.605469 L 235.378906 258.605469 Z M 187.550781 170.753906 " fill-opacity="1" fill-rule="evenodd"/></g></svg>