<svg width="50" height="48" viewBox="0 0 50 48" fill="none" xmlns="http://www.w3.org/2000/svg">
<path fill-rule="evenodd" clip-rule="evenodd" d="M36.622 2.72616C34.7545 1.79045 32.4995 3.04282 32.4995 5.05473C32.4995 6.07616 33.1395 6.9643 34.087 7.44287C41.0395 10.9572 45.5021 18.3715 44.2271 26.6048C42.9671 34.7667 35.8346 41.2929 27.2246 42.2095C15.5121 43.4548 5.55703 34.7167 5.55703 23.8095C5.55703 16.6762 9.81204 10.4762 16.032 7.38336C16.9095 6.94765 17.4996 6.1238 17.4996 5.18094V4.96194C17.4996 2.99051 15.2946 1.7738 13.4571 2.68809C4.64708 7.0619 -1.08294 16.2881 0.172059 26.6453C1.48706 37.481 10.752 46.2619 22.1345 47.4667C37.2245 49.0643 49.9996 37.8571 49.9996 23.8095C49.9996 14.6548 44.577 6.7095 36.622 2.72616ZM22.4996 21.4286V2.38095C22.4996 1.06429 23.6196 0 24.9996 0C26.3821 0 27.4995 1.06429 27.4995 2.38095V21.4286C27.4995 22.7429 26.3821 23.8095 24.9996 23.8095C23.6196 23.8095 22.4996 22.7429 22.4996 21.4286Z" fill="url(#paint0_linear_3_120)"/>
<defs>
<linearGradient id="paint0_linear_3_120" x1="24.9998" y1="0" x2="24.9998" y2="47.6187" gradientUnits="userSpaceOnUse">
<stop/>
<stop offset="1" stop-color="#666666"/>
</linearGradient>
</defs>
</svg>
