<svg xmlns="http://www.w3.org/2000/svg" xmlns:xlink="http://www.w3.org/1999/xlink" width="500" zoomAndPan="magnify" viewBox="0 0 375 374.999991" height="500" preserveAspectRatio="xMidYMid meet" version="1.0"><defs><clipPath id="9daf2113e1"><path d="M 87.769531 132 L 194 132 L 194 237.890625 L 87.769531 237.890625 Z M 87.769531 132 " clip-rule="nonzero"/></clipPath><clipPath id="1154c2e11c"><path d="M 20.21875 67.265625 L 354.71875 67.265625 L 354.71875 308 L 20.21875 308 Z M 20.21875 67.265625 " clip-rule="nonzero"/></clipPath></defs><g clip-path="url(#9daf2113e1)"><path fill="#000000" d="M 87.769531 182.765625 C 87.769531 160.410156 101.078125 141.164062 120.203125 132.511719 L 126.730469 139.042969 C 123.84375 144.964844 122.222656 151.617188 122.222656 158.648438 C 122.222656 183.386719 142.273438 203.4375 167.011719 203.4375 C 174.042969 203.4375 180.699219 201.816406 186.621094 198.929688 L 193.148438 205.457031 C 184.496094 224.582031 165.25 237.890625 142.894531 237.890625 C 112.449219 237.890625 87.769531 213.210938 87.769531 182.765625 Z M 87.769531 182.765625 " fill-opacity="1" fill-rule="nonzero"/></g><path fill="#000000" d="M 167.011719 175.875 L 149.785156 158.648438 L 167.011719 141.421875 L 184.238281 158.648438 Z M 167.011719 175.875 " fill-opacity="1" fill-rule="nonzero"/><g clip-path="url(#1154c2e11c)"><path fill="#000000" d="M 344.265625 67.917969 L 244.960938 67.917969 C 244.273438 67.917969 243.59375 67.984375 242.921875 68.117188 C 242.246094 68.253906 241.59375 68.449219 240.960938 68.714844 C 240.324219 68.976562 239.722656 69.300781 239.152344 69.679688 C 238.582031 70.0625 238.054688 70.496094 237.570312 70.984375 C 237.082031 71.46875 236.648438 71.996094 236.269531 72.570312 C 235.886719 73.140625 235.566406 73.742188 235.304688 74.378906 C 235.039062 75.015625 234.84375 75.667969 234.707031 76.34375 C 234.574219 77.015625 234.507812 77.699219 234.507812 78.382812 L 234.507812 93.773438 L 30.671875 93.773438 C 29.984375 93.773438 29.304688 93.839844 28.632812 93.972656 C 27.957031 94.105469 27.304688 94.304688 26.671875 94.570312 C 26.035156 94.832031 25.433594 95.15625 24.863281 95.535156 C 24.292969 95.917969 23.765625 96.351562 23.28125 96.839844 C 22.792969 97.324219 22.359375 97.851562 21.980469 98.425781 C 21.597656 98.996094 21.277344 99.597656 21.015625 100.234375 C 20.75 100.867188 20.554688 101.523438 20.417969 102.199219 C 20.285156 102.871094 20.21875 103.550781 20.21875 104.238281 L 20.21875 264.289062 C 20.21875 264.976562 20.285156 265.660156 20.417969 266.332031 C 20.554688 267.007812 20.75 267.660156 21.015625 268.296875 C 21.277344 268.933594 21.597656 269.535156 21.980469 270.105469 C 22.359375 270.679688 22.792969 271.207031 23.28125 271.691406 C 23.765625 272.179688 24.292969 272.613281 24.863281 272.996094 C 25.433594 273.375 26.035156 273.699219 26.671875 273.960938 C 27.304688 274.226562 27.957031 274.421875 28.632812 274.558594 C 29.304688 274.691406 29.984375 274.757812 30.671875 274.757812 L 79.851562 274.757812 C 77.832031 278.09375 76.296875 281.644531 75.25 285.402344 C 74.203125 289.164062 73.679688 292.996094 73.6875 296.898438 C 73.6875 297.585938 73.753906 298.265625 73.886719 298.941406 C 74.019531 299.613281 74.21875 300.269531 74.480469 300.902344 C 74.746094 301.539062 75.066406 302.140625 75.449219 302.714844 C 75.828125 303.285156 76.261719 303.8125 76.746094 304.300781 C 77.234375 304.785156 77.761719 305.21875 78.332031 305.601562 C 78.902344 305.984375 79.503906 306.304688 80.140625 306.570312 C 80.773438 306.832031 81.425781 307.03125 82.101562 307.164062 C 82.773438 307.296875 83.453125 307.367188 84.140625 307.367188 L 191.597656 307.367188 C 192.285156 307.367188 192.964844 307.296875 193.636719 307.164062 C 194.308594 307.03125 194.964844 306.832031 195.597656 306.570312 C 196.230469 306.304688 196.832031 305.984375 197.40625 305.601562 C 197.976562 305.21875 198.503906 304.785156 198.988281 304.300781 C 199.472656 303.8125 199.90625 303.285156 200.289062 302.714844 C 200.671875 302.140625 200.992188 301.539062 201.253906 300.902344 C 201.515625 300.269531 201.714844 299.613281 201.847656 298.941406 C 201.984375 298.265625 202.050781 297.585938 202.050781 296.898438 C 202.054688 292.996094 201.535156 289.164062 200.488281 285.402344 C 199.441406 281.644531 197.90625 278.09375 195.882812 274.757812 L 234.507812 274.757812 L 234.507812 296.898438 C 234.507812 297.585938 234.574219 298.265625 234.707031 298.941406 C 234.84375 299.613281 235.039062 300.269531 235.304688 300.902344 C 235.566406 301.539062 235.886719 302.140625 236.269531 302.714844 C 236.648438 303.285156 237.082031 303.8125 237.570312 304.300781 C 238.054688 304.785156 238.582031 305.21875 239.152344 305.601562 C 239.722656 305.984375 240.324219 306.304688 240.960938 306.570312 C 241.59375 306.832031 242.246094 307.03125 242.921875 307.164062 C 243.59375 307.296875 244.273438 307.367188 244.960938 307.367188 L 344.265625 307.367188 C 344.953125 307.367188 345.632812 307.296875 346.304688 307.164062 C 346.976562 307.03125 347.632812 306.832031 348.265625 306.570312 C 348.898438 306.304688 349.5 305.984375 350.074219 305.601562 C 350.644531 305.21875 351.171875 304.785156 351.65625 304.300781 C 352.140625 303.8125 352.574219 303.285156 352.957031 302.714844 C 353.335938 302.140625 353.660156 301.539062 353.921875 300.902344 C 354.183594 300.269531 354.382812 299.613281 354.515625 298.941406 C 354.652344 298.265625 354.71875 297.585938 354.71875 296.898438 L 354.71875 78.382812 C 354.71875 77.699219 354.652344 77.015625 354.515625 76.34375 C 354.382812 75.667969 354.183594 75.015625 353.921875 74.378906 C 353.660156 73.742188 353.335938 73.140625 352.957031 72.570312 C 352.574219 71.996094 352.140625 71.46875 351.65625 70.984375 C 351.171875 70.496094 350.644531 70.0625 350.074219 69.679688 C 349.5 69.300781 348.898438 68.976562 348.265625 68.714844 C 347.632812 68.449219 346.976562 68.253906 346.304688 68.117188 C 345.632812 67.984375 344.953125 67.917969 344.265625 67.917969 M 97.207031 286.429688 C 97.675781 285.554688 98.203125 284.710938 98.785156 283.90625 C 99.367188 283.101562 100 282.339844 100.6875 281.621094 C 101.371094 280.898438 102.101562 280.230469 102.878906 279.609375 C 103.652344 278.988281 104.46875 278.421875 105.320312 277.910156 C 106.171875 277.398438 107.054688 276.945312 107.964844 276.554688 C 108.878906 276.160156 109.8125 275.832031 110.769531 275.566406 C 111.726562 275.300781 112.699219 275.097656 113.683594 274.964844 C 114.667969 274.828125 115.65625 274.761719 116.648438 274.757812 L 159.089844 274.757812 C 160.082031 274.761719 161.070312 274.828125 162.054688 274.964844 C 163.039062 275.097656 164.007812 275.300781 164.964844 275.566406 C 165.921875 275.832031 166.855469 276.160156 167.769531 276.554688 C 168.683594 276.945312 169.566406 277.398438 170.417969 277.910156 C 171.269531 278.421875 172.082031 278.988281 172.859375 279.609375 C 173.632812 280.230469 174.363281 280.898438 175.050781 281.621094 C 175.734375 282.339844 176.371094 283.101562 176.953125 283.90625 C 177.535156 284.710938 178.0625 285.554688 178.53125 286.429688 Z M 234.507812 253.824219 L 41.125 253.824219 L 41.125 114.707031 L 234.507812 114.707031 Z M 333.8125 286.429688 L 255.414062 286.429688 L 255.414062 88.851562 L 333.8125 88.851562 Z M 333.8125 286.429688 " fill-opacity="1" fill-rule="nonzero"/></g></svg>